<?xml version="1.0" encoding="UTF-8"?>
<svg id="Layer_2" data-name="Layer 2" xmlns="http://www.w3.org/2000/svg" viewBox="0 0 328.27 319.1">
  <defs>
    <style>
      .cls-1 {
        fill: #bcbec0;
      }

      .cls-1, .cls-2, .cls-3 {
        stroke-miterlimit: 10;
      }

      .cls-1, .cls-3 {
        stroke: #231f20;
      }

      .cls-2 {
        fill: none;
        stroke: #9675b4;
        stroke-width: 9px;
      }

      .cls-3 {
        fill: #bad75a;
      }
    </style>
  </defs>
  <g id="Layer_2-2" data-name="Layer 2">
    <g id="Layer_3" data-name="Layer 3">
      <path class="cls-2" d="m2.57,301.58c25.26,17.61,38.72,10.23,45.11,7.15,5.1-2.46,17.67-9.44,34.25-28.79,4.34-5.07,11.91-10.64,14.83-9.96,7.3,1.71,8.7,24.74,16.14,27.36,8.15,2.87,29.78-19.94,26.11-48.92-4.42-34.91-49.76-35.03-48.89-60.89.8-23.78,42.6-42.51,70.41-48.11,30.32-6.11,47.47,7.38,58.56,4.61,60.57-15.09,74.27-121.89,65.48-135.37-5.24-8.03-29.54,2.71-45.49,25.72-14.65,21.14-22.16,51.5-26.15,69.22-12.16,54.06-20.25,114.64-12.96,151.91,3.49,17.84,16.3,59.12,62.7,59.09,71.78-.05,58.51-34.89,62.92-38.16"/>
    </g>
    <g id="Layer_2-2" data-name="Layer 2-2">
      <path class="cls-1" d="m93.14,269.29s.9,4.84,2.2,5.47,2.89-3.57,2.89-3.57c0,0,.07-7.74.85-10.91s12.75-54.22,12.75-54.22l7.88,1.65c-11.35,41.83-17.55,64.1-18.61,66.83-1.52,3.86-5.91,13.93-7.43,13.88-6.61-.19-6.45-9.32-6.45-9.32,0,0,.75-7.24,5.92-9.81h0Z"/>
    </g>
    <g id="Layer_3_copy" data-name="Layer 3 copy">
      <path class="cls-3" d="m122.77,212.81s-1.41,1.02-6.93-.49-7.37-2.97-7.37-2.97c0,0-1.68.6-.59-6.32,1.09-6.93,6.22-32.86,6.22-32.86,0,0,1.14-10.67,4.9-24.04,3.76-13.37,10.52-33.58,10.52-33.58,0,0,8.11-24.38,11.54-39.25,3.42-14.87,9.85-41.83,9.85-41.83,0,0,5.52-24.92,10.37-28.36,4.85-3.44,8.63-2.49,8.63-2.49,0,0,8.32,2.05,6.84,14.47-1.48,12.42-16.89,62.61-16.89,62.61,0,0-11.79,51.12-13.3,60.66s-10.21,37.14-10.21,37.14c0,0-9.13,34.51-13.57,37.31h0Z"/>
      <path class="cls-2" d="m90.12,187.53c.8-23.78,42.6-42.51,70.41-48.11"/>
      <path class="cls-2" d="m96.76,269.99c7.3,1.71,8.7,24.74,16.14,27.36"/>
    </g>
  </g>
</svg>